<svg width="1122" height="648" viewBox="0 0 1122 648" fill="none" xmlns="http://www.w3.org/2000/svg">
<g filter="url(#filter0_d_224_513)">
<path d="M1118 608C1118 630.091 1100.09 648 1078 648L44 648C21.9086 648 4 630.091 4 608V125C4 102.909 21.9086 85 44 85L1078 85C1100.09 85 1118 102.909 1118 125V608Z" fill="#E8B3C0"/>
<path d="M646.518 10C654.902 10 662.321 14.1275 666.856 20.4609C671.366 25.8644 674.334 32.8234 675.123 40.0195C677.175 58.7336 685.229 80.1524 710.518 85H412C437.289 80.1524 445.342 58.7336 447.395 40.0195C448.184 32.8236 451.151 25.8643 455.66 20.4609C460.196 14.1273 467.616 10 476 10H646.518Z" fill="#E8B3C0"/>
</g>
<defs>
<filter id="filter0_d_224_513" x="0" y="0" width="1122" height="648" filterUnits="userSpaceOnUse" color-interpolation-filters="sRGB">
<feFlood flood-opacity="0" result="BackgroundImageFix"/>
<feColorMatrix in="SourceAlpha" type="matrix" values="0 0 0 0 0 0 0 0 0 0 0 0 0 0 0 0 0 0 127 0" result="hardAlpha"/>
<feOffset dy="-6"/>
<feGaussianBlur stdDeviation="2"/>
<feComposite in2="hardAlpha" operator="out"/>
<feColorMatrix type="matrix" values="0 0 0 0 0 0 0 0 0 0 0 0 0 0 0 0 0 0 0.16 0"/>
<feBlend mode="normal" in2="BackgroundImageFix" result="effect1_dropShadow_224_513"/>
<feBlend mode="normal" in="SourceGraphic" in2="effect1_dropShadow_224_513" result="shape"/>
</filter>
</defs>
</svg>
