<svg width="569" height="81" viewBox="0 0 569 81" fill="none" xmlns="http://www.w3.org/2000/svg">
<path d="M68.9358 16.1115L59.4628 25.4162C53.0211 18.3991 45.7654 14.8905 37.7098 14.8905C30.9032 14.8905 25.1773 17.2904 20.532 22.076C15.8726 26.8617 13.543 32.7701 13.543 39.7871C13.543 44.671 14.5675 49.0216 16.6305 52.7968C18.6935 56.5861 21.6126 59.5613 25.3738 61.7226C29.149 63.8838 33.3312 64.9644 37.9484 64.9644C41.878 64.9644 45.4707 64.2066 48.7266 62.6909C51.9826 61.1752 55.5613 58.4245 59.4628 54.4388L68.6411 64.3048C63.3783 69.5817 58.4243 73.2586 53.7368 75.2936C49.0635 77.3426 43.7305 78.3531 37.7239 78.3531C26.6649 78.3531 17.6129 74.7463 10.5677 67.5187C3.52258 60.2911 0 51.0285 0 39.745C0 32.4332 1.59989 25.9495 4.81372 20.2656C8.02754 14.5818 12.6167 10.0207 18.5953 6.56826C24.5738 3.11585 31.0155 1.38965 37.9203 1.38965C43.7866 1.38965 49.4424 2.66677 54.8736 5.22099C60.3048 7.77521 64.9922 11.4101 68.9218 16.1115H68.9358Z" fill="#2C2D2D"/>
<path d="M112.624 22.3152H125.83V76.5292H112.624V70.8032C110.042 73.3294 107.46 75.1398 104.863 76.2625C102.267 77.3712 99.4601 77.9326 96.4287 77.9326C89.6361 77.9326 83.7558 75.21 78.7877 69.7787C73.8337 64.3475 71.3496 57.5971 71.3496 49.5274C71.3496 41.4578 73.7494 34.3003 78.5491 28.9533C83.3488 23.6063 89.173 20.9258 96.0357 20.9258C99.1934 20.9258 102.155 21.5433 104.919 22.7643C107.684 23.9993 110.252 25.8377 112.61 28.2937V22.3152H112.624ZM98.7443 33.4723C94.6604 33.4723 91.2781 34.9599 88.5695 37.9352C85.875 40.9104 84.5137 44.7137 84.5137 49.373C84.5137 54.0324 85.889 57.9058 88.6397 60.9372C91.3904 63.9686 94.7726 65.4702 98.7864 65.4702C102.8 65.4702 106.365 63.9826 109.102 61.0074C111.838 58.0321 113.2 54.1447 113.2 49.3169C113.2 44.4891 111.838 40.7841 109.102 37.851C106.365 34.9178 102.912 33.4723 98.7303 33.4723H98.7443Z" fill="#2C2D2D"/>
<path d="M132.791 22.3143H137.478C137.507 15.213 137.619 11.0028 137.815 9.71164C138.166 6.72237 139.387 4.35059 141.464 2.61036C143.541 0.870119 146.488 0 150.292 0C153.028 0 156.13 0.645557 159.582 1.9367V12.308C157.674 11.7466 156.116 11.4659 154.895 11.4659C153.351 11.4659 152.214 11.8027 151.513 12.4623C150.993 12.9676 150.741 13.9921 150.741 15.5499L150.699 22.3284H159.063V33.8364H150.699V76.5424H137.492V33.8364H132.805V22.3284L132.791 22.3143Z" fill="#2C2D2D"/>
<path d="M217.053 53.3451H174.628C175.245 57.2045 176.873 60.2639 179.54 62.5375C182.206 64.811 185.588 65.9478 189.729 65.9478C194.669 65.9478 198.907 64.1795 202.458 60.6148L213.587 65.9899C210.808 70.0457 207.496 73.035 203.622 74.9858C199.749 76.9365 195.16 77.9049 189.841 77.9049C181.589 77.9049 174.866 75.2244 169.674 69.8633C164.481 64.5023 161.885 57.7799 161.885 49.7102C161.885 41.6406 164.467 34.5674 169.646 29.1081C174.824 23.6488 181.308 20.9121 189.111 20.9121C197.405 20.9121 204.142 23.6488 209.334 29.1081C214.527 34.5674 217.123 41.7809 217.123 50.7488L217.081 53.3451H217.053ZM203.847 42.637C202.977 39.6197 201.251 37.1496 198.682 35.255C196.114 33.3604 193.139 32.4201 189.743 32.4201C186.066 32.4201 182.824 33.4867 180.045 35.6059C178.305 36.9391 176.691 39.2688 175.203 42.637H203.847Z" fill="#2C2D2D"/>
<path d="M338.041 3.22754H352.398C360.173 3.22754 365.773 3.97133 369.211 5.44492C372.65 6.91851 375.358 9.31835 377.337 12.6164C379.316 15.9144 380.312 19.8861 380.312 24.5033C380.312 29.6118 379.007 33.8641 376.411 37.2604C373.814 40.6426 370.292 43.0144 365.843 44.3336C363.233 45.0915 358.475 45.4844 351.57 45.4844V76.528H338.027V3.24157L338.041 3.22754ZM351.584 31.8713H355.893C359.275 31.8713 361.633 31.6187 362.952 31.1275C364.271 30.6222 365.324 29.8083 366.068 28.6575C366.825 27.5066 367.204 26.1173 367.204 24.4893C367.204 21.6544 366.138 19.5914 364.019 18.2862C362.475 17.3178 359.598 16.8407 355.402 16.8407H351.584V31.8853V31.8713Z" fill="#2C2D2D"/>
<path d="M399.82 3.22754H413.559L440.926 76.514H426.85L421.278 61.4132H392.241L386.445 76.514H372.369L399.806 3.22754H399.82ZM406.781 22.6649L397.238 47.8281H416.268L406.781 22.6649Z" fill="#2C2D2D"/>
<path d="M446.777 3.22754H461.134C468.993 3.22754 474.593 3.94327 477.919 5.38879C481.259 6.83431 483.926 9.23416 485.961 12.5883C487.996 15.9425 489.006 19.9142 489.006 24.5033C489.006 29.317 487.883 33.3449 485.638 36.5867C483.392 39.8286 480.024 42.2706 475.505 43.9407L492.36 76.528H477.554L461.555 45.4844H460.32V76.528H446.777V3.24157V3.22754ZM460.32 31.8713H464.573C468.881 31.8713 471.842 31.2959 473.47 30.117C475.098 28.9522 475.912 27.0155 475.912 24.3209C475.912 22.721 475.505 21.3316 474.705 20.1527C473.905 18.9739 472.825 18.1178 471.477 17.5985C470.13 17.0793 467.646 16.8266 464.053 16.8266H460.334V31.8713H460.32Z" fill="#2C2D2D"/>
<path d="M500.57 3.22754H514.015V76.514H500.57V3.22754Z" fill="#2C2D2D"/>
<path d="M567.5 13.1924L557.466 22.3146C553.943 17.2623 550.365 14.7362 546.702 14.7362C544.933 14.7362 543.474 15.2274 542.337 16.2098C541.2 17.1921 540.639 18.2868 540.639 19.5218C540.639 20.7568 541.046 21.9076 541.846 23.0023C542.941 24.4618 546.253 27.6055 551.782 32.4192C556.947 36.868 560.076 39.6749 561.185 40.8397C563.936 43.7027 565.872 46.4253 567.023 49.0357C568.174 51.646 568.749 54.495 568.749 57.5825C568.749 63.5891 566.729 68.5572 562.687 72.4727C558.659 76.3883 553.396 78.3531 546.898 78.3531C541.832 78.3531 537.411 77.0759 533.65 74.5217C529.889 71.9675 526.661 67.9397 523.98 62.4664L535.362 55.3932C538.786 61.8629 542.73 65.1048 547.179 65.1048C549.509 65.1048 551.459 64.4031 553.045 63.0137C554.631 61.6243 555.417 60.0104 555.417 58.1859C555.417 56.5159 554.828 54.8599 553.621 53.2038C552.428 51.5478 549.789 49.0076 545.719 45.5833C537.958 39.0714 532.962 34.0472 530.703 30.5106C528.443 26.9739 527.307 23.4373 527.307 19.9288C527.307 14.8484 529.187 10.4838 532.948 6.84894C536.709 3.21409 541.355 1.38965 546.87 1.38965C550.421 1.38965 553.803 2.23172 557.017 3.92985C560.231 5.62799 563.711 8.71549 567.458 13.1924H567.5Z" fill="#2C2D2D"/>
<path d="M250.621 31.6758C248.474 31.6758 246.692 32.5038 245.26 34.1458C243.843 35.7878 243.127 37.907 243.127 40.4752C243.127 43.0435 243.843 45.2047 245.302 46.8888C246.748 48.5589 248.53 49.4009 250.649 49.4009C252.768 49.4009 254.635 48.5729 256.08 46.9309C257.512 45.2889 258.242 43.1277 258.242 40.4612C258.242 37.7947 257.526 35.7317 256.08 34.1177C254.649 32.5038 252.825 31.6898 250.621 31.6898V31.6758Z" fill="#2C2D2D"/>
<path d="M287.854 32.6724C286.493 31.6198 284.935 31.1006 283.153 31.1006C281.216 31.1006 279.518 31.69 278.058 32.8689C277.146 33.6127 276.29 34.9038 275.504 36.7564H290.577C290.113 35.0863 289.215 33.725 287.854 32.6724Z" fill="#2C2D2D"/>
<path d="M308.387 10.7784V2.68066H226.525V40.1098C226.525 62.354 244.91 80.3879 267.589 80.3879C286.086 80.3879 301.72 68.3746 306.857 51.8845C307.208 51.9125 307.573 51.9406 307.938 51.9406C319.516 51.9406 328.919 42.7201 328.919 31.3525C328.919 20.1392 319.768 11.031 308.401 10.7924L308.387 10.7784ZM264.881 55.5333H257.934V52.3616C256.573 53.751 255.211 54.7755 253.85 55.379C252.489 55.9965 251.001 56.3052 249.415 56.3052C245.836 56.3052 242.749 54.8036 240.125 51.7862C237.514 48.7829 236.209 45.0358 236.209 40.5729C236.209 36.1101 237.472 32.1384 239.998 29.1772C242.524 26.216 245.598 24.7283 249.205 24.7283C250.861 24.7283 252.418 25.0651 253.878 25.7528C255.338 26.4405 256.685 27.451 257.92 28.8123V13.908H264.867V55.5333H264.881ZM297.524 42.6921H275.196C275.519 44.8253 276.375 46.5234 277.778 47.7865C279.182 49.0496 280.964 49.6811 283.139 49.6811C285.736 49.6811 287.967 48.6987 289.834 46.7339L295.686 49.7092C294.226 51.9546 292.472 53.6107 290.437 54.6913C288.402 55.7719 285.974 56.3052 283.181 56.3052C278.831 56.3052 275.294 54.8176 272.557 51.8424C269.821 48.8671 268.46 45.1481 268.46 40.6712C268.46 36.1943 269.821 32.2787 272.543 29.2614C275.266 26.23 278.69 24.7283 282.788 24.7283C287.153 24.7283 290.69 26.244 293.426 29.2614C296.163 32.2927 297.524 36.2925 297.524 41.2606L297.496 42.6921H297.524ZM308.555 38.566C308.513 37.6257 308.485 36.6855 308.387 35.7873V24.1108C312.26 24.3494 315.348 27.479 315.348 31.3384C315.348 35.1978 312.344 38.2292 308.555 38.566Z" fill="#2C2D2D"/>
<path d="M201.775 11.5714L198.021 2.99609L183.867 9.19202L187.62 17.7673L201.775 11.5714Z" fill="#2C2D2D"/>
</svg>
