<svg width="569" height="81" viewBox="0 0 569 81" fill="none" xmlns="http://www.w3.org/2000/svg">
<path d="M68.9358 16.1115L59.4628 25.4161C53.0211 18.3991 45.7654 14.8905 37.7098 14.8905C30.9032 14.8905 25.1773 17.2904 20.532 22.076C15.8726 26.8617 13.543 32.77 13.543 39.7871C13.543 44.671 14.5675 49.0216 16.6305 52.7968C18.6935 56.586 21.6126 59.5613 25.3738 61.7225C29.149 63.8838 33.3312 64.9644 37.9484 64.9644C41.878 64.9644 45.4707 64.2066 48.7266 62.6909C51.9826 61.1752 55.5613 58.4245 59.4628 54.4388L68.6411 64.3048C63.3783 69.5817 58.4243 73.2586 53.7368 75.2936C49.0635 77.3425 43.7305 78.353 37.7239 78.353C26.6649 78.353 17.6129 74.7463 10.5677 67.5187C3.52258 60.2911 0 51.0285 0 39.745C0 32.4332 1.59989 25.9494 4.81372 20.2656C8.02754 14.5817 12.6167 10.0206 18.5953 6.56822C24.5738 3.11581 31.0155 1.38965 37.9203 1.38965C43.7866 1.38965 49.4424 2.66673 54.8736 5.22095C60.3048 7.77517 64.9922 11.41 68.9218 16.1115H68.9358Z" fill="white"/>
<path d="M112.624 22.3142H125.83V76.5282H112.624V70.8023C110.042 73.3284 107.46 75.1388 104.863 76.2615C102.267 77.3702 99.4601 77.9316 96.4287 77.9316C89.6361 77.9316 83.7558 75.209 78.7877 69.7778C73.8337 64.3465 71.3496 57.5961 71.3496 49.5265C71.3496 41.4568 73.7494 34.2994 78.5491 28.9524C83.3488 23.6053 89.173 20.9248 96.0357 20.9248C99.1934 20.9248 102.155 21.5423 104.919 22.7633C107.684 23.9983 110.252 25.8368 112.61 28.2927V22.3142H112.624ZM98.7443 33.4714C94.6604 33.4714 91.2781 34.959 88.5695 37.9342C85.875 40.9095 84.5137 44.7127 84.5137 49.3721C84.5137 54.0314 85.889 57.9049 88.6397 60.9362C91.3904 63.9676 94.7726 65.4693 98.7864 65.4693C102.8 65.4693 106.365 63.9816 109.102 61.0064C111.838 58.0311 113.2 54.1437 113.2 49.3159C113.2 44.4882 111.838 40.7832 109.102 37.85C106.365 34.9169 102.912 33.4714 98.7303 33.4714H98.7443Z" fill="white"/>
<path d="M132.791 22.3143H137.478C137.507 15.213 137.619 11.0028 137.815 9.71167C138.166 6.72239 139.387 4.35062 141.464 2.61038C143.541 0.870141 146.488 0 150.292 0C153.028 0 156.13 0.645579 159.582 1.93672V12.308C157.674 11.7466 156.116 11.4659 154.895 11.4659C153.351 11.4659 152.214 11.8027 151.513 12.4624C150.993 12.9676 150.741 13.9921 150.741 15.5499L150.699 22.3284H159.063V33.8364H150.699V76.5424H137.492V33.8364H132.805V22.3284L132.791 22.3143Z" fill="white"/>
<path d="M217.053 53.3578H174.628C175.245 57.2172 176.873 60.2766 179.54 62.5502C182.206 64.8237 185.588 65.9605 189.729 65.9605C194.669 65.9605 198.907 64.1922 202.458 60.6275L213.587 66.0026C210.808 70.0584 207.496 73.0477 203.622 74.9985C199.749 76.9492 195.16 77.9176 189.841 77.9176C181.589 77.9176 174.866 75.2371 169.674 69.876C164.481 64.5149 161.885 57.7926 161.885 49.7229C161.885 41.6533 164.467 34.58 169.646 29.1208C174.824 23.6615 181.308 20.9248 189.111 20.9248C197.405 20.9248 204.142 23.6615 209.334 29.1208C214.527 34.58 217.123 41.7936 217.123 50.7615L217.081 53.3578H217.053ZM203.847 42.6497C202.977 39.6324 201.251 37.1623 198.682 35.2677C196.114 33.3731 193.139 32.4328 189.743 32.4328C186.066 32.4328 182.824 33.4994 180.045 35.6186C178.305 36.9518 176.691 39.2815 175.203 42.6497H203.847Z" fill="white"/>
<path d="M338.041 3.22754H352.398C360.173 3.22754 365.773 3.97133 369.211 5.44492C372.65 6.91851 375.358 9.31837 377.337 12.6164C379.316 15.9144 380.312 19.8861 380.312 24.5033C380.312 29.6118 379.007 33.8641 376.411 37.2604C373.814 40.6426 370.292 43.0144 365.843 44.3336C363.233 45.0914 358.475 45.4844 351.57 45.4844V76.528H338.027V3.24154L338.041 3.22754ZM351.584 31.8853H355.893C359.275 31.8853 361.633 31.6327 362.952 31.1415C364.271 30.6363 365.324 29.8223 366.068 28.6715C366.825 27.5207 367.204 26.1313 367.204 24.5033C367.204 21.6684 366.138 19.6054 364.019 18.3002C362.475 17.3319 359.598 16.8547 355.402 16.8547H351.584V31.8993V31.8853Z" fill="white"/>
<path d="M399.82 3.22754H413.559L440.926 76.514H426.85L421.278 61.4132H392.241L386.445 76.514H372.369L399.806 3.22754H399.82ZM406.781 22.6648L397.238 47.8281H416.268L406.781 22.6648Z" fill="white"/>
<path d="M446.777 3.22754H461.134C468.993 3.22754 474.593 3.94325 477.919 5.38877C481.259 6.83429 483.926 9.23414 485.961 12.5883C487.996 15.9425 489.006 19.9142 489.006 24.5033C489.006 29.3171 487.883 33.3449 485.638 36.5867C483.392 39.8286 480.024 42.2706 475.505 43.9406L492.36 76.528H477.554L461.555 45.4844H460.32V76.528H446.777V3.24154V3.22754ZM460.32 31.8853H464.573C468.881 31.8853 471.842 31.3099 473.47 30.131C475.098 28.9662 475.912 27.0295 475.912 24.3349C475.912 22.735 475.505 21.3456 474.705 20.1668C473.905 18.9879 472.825 18.1318 471.477 17.6126C470.13 17.0933 467.646 16.8407 464.053 16.8407H460.334V31.8853H460.32Z" fill="white"/>
<path d="M500.57 3.22754H514.015V76.514H500.57V3.22754Z" fill="white"/>
<path d="M567.5 13.1923L557.466 22.3146C553.943 17.2623 550.365 14.7361 546.702 14.7361C544.933 14.7361 543.474 15.2273 542.337 16.2097C541.2 17.1921 540.639 18.2868 540.639 19.5218C540.639 20.7568 541.046 21.9076 541.846 23.0023C542.941 24.4618 546.253 27.6055 551.782 32.4192C556.947 36.868 560.076 39.6748 561.185 40.8397C563.936 43.7027 565.872 46.4253 567.023 49.0356C568.174 51.646 568.749 54.4949 568.749 57.5824C568.749 63.5891 566.729 68.5572 562.687 72.4727C558.659 76.3883 553.396 78.353 546.898 78.353C541.832 78.353 537.411 77.0759 533.65 74.5217C529.889 71.9675 526.661 67.9397 523.98 62.4663L535.362 55.3931C538.786 61.8629 542.73 65.1048 547.179 65.1048C549.509 65.1048 551.459 64.403 553.045 63.0137C554.631 61.6243 555.417 60.0104 555.417 58.1859C555.417 56.5159 554.828 54.8598 553.621 53.2038C552.428 51.5478 549.789 49.0076 545.719 45.5832C537.958 39.0714 532.962 34.0472 530.703 30.5106C528.443 26.9739 527.307 23.4373 527.307 19.9288C527.307 14.8484 529.187 10.4838 532.948 6.84892C536.709 3.21407 541.355 1.38965 546.87 1.38965C550.421 1.38965 553.803 2.2317 557.017 3.92983C560.231 5.62796 563.711 8.71545 567.458 13.1923H567.5Z" fill="white"/>
<path d="M250.621 31.6758C248.474 31.6758 246.692 32.5038 245.26 34.1458C243.843 35.7878 243.127 37.9069 243.127 40.4752C243.127 43.0434 243.843 45.2047 245.302 46.8888C246.748 48.5589 248.53 49.4009 250.649 49.4009C252.768 49.4009 254.635 48.5729 256.08 46.9309C257.512 45.2889 258.242 43.1277 258.242 40.4612C258.242 37.7947 257.526 35.7316 256.08 34.1177C254.649 32.5038 252.825 31.6898 250.621 31.6898V31.6758Z" fill="white"/>
<path d="M287.854 32.6714C286.493 31.6189 284.935 31.0996 283.153 31.0996C281.216 31.0996 279.518 31.6891 278.058 32.8679C277.146 33.6117 276.29 34.9029 275.504 36.7554H290.577C290.113 35.0853 289.215 33.724 287.854 32.6714Z" fill="white"/>
<path d="M308.387 10.7784V2.68066H226.525V40.1098C226.525 62.354 244.91 80.3879 267.589 80.3879C286.086 80.3879 301.72 68.3746 306.857 51.8845C307.208 51.9125 307.573 51.9406 307.938 51.9406C319.516 51.9406 328.919 42.7201 328.919 31.3525C328.919 20.1392 319.768 11.031 308.401 10.7924L308.387 10.7784ZM264.881 55.5334H257.934V52.3616C256.573 53.751 255.211 54.7755 253.85 55.379C252.489 55.9965 251.001 56.3052 249.415 56.3052C245.836 56.3052 242.749 54.8036 240.125 51.7862C237.514 48.7829 236.209 45.0358 236.209 40.5729C236.209 36.1101 237.472 32.1384 239.998 29.1772C242.524 26.216 245.598 24.7283 249.205 24.7283C250.861 24.7283 252.418 25.0652 253.878 25.7528C255.338 26.4405 256.685 27.451 257.92 28.8123V13.908H264.867V55.5334H264.881ZM297.524 42.6921H275.196C275.519 44.8253 276.375 46.5234 277.778 47.7865C279.182 49.0496 280.964 49.6811 283.139 49.6811C285.736 49.6811 287.967 48.6987 289.834 46.7339L295.686 49.7092C294.226 51.9547 292.472 53.6107 290.437 54.6913C288.402 55.7719 285.974 56.3052 283.181 56.3052C278.831 56.3052 275.294 54.8176 272.557 51.8424C269.821 48.8671 268.46 45.1481 268.46 40.6712C268.46 36.1943 269.821 32.2787 272.543 29.2614C275.266 26.23 278.69 24.7283 282.788 24.7283C287.153 24.7283 290.69 26.244 293.426 29.2614C296.163 32.2928 297.524 36.2925 297.524 41.2606L297.496 42.6921H297.524ZM308.555 38.566C308.513 37.6258 308.485 36.6855 308.387 35.7873V24.1108C312.26 24.3494 315.348 27.4791 315.348 31.3385C315.348 35.1979 312.344 38.2292 308.555 38.566Z" fill="white"/>
<path d="M201.783 11.5753L198.029 3L183.874 9.19591L187.628 17.7712L201.783 11.5753Z" fill="white"/>
</svg>
